<?xml version="1.0" encoding="utf-8"?>

<!DOCTYPE svg PUBLIC "-//W3C//DTD SVG 1.1//EN" "http://www.w3.org/Graphics/SVG/1.1/DTD/svg11.dtd">
<!-- Uploaded to: SVG Repo, www.svgrepo.com, Generator: SVG Repo Mixer Tools -->
<svg height="800px" width="800px" version="1.1" id="_x32_" xmlns="http://www.w3.org/2000/svg" xmlns:xlink="http://www.w3.org/1999/xlink" 
	 viewBox="0 0 512 512"  xml:space="preserve">
<style type="text/css">
	.st0{fill:#FF4500;}
</style>
<g>
	<path class="st0" d="M392.172,147.731c13.598,34.6-10.914,87.102-45.319,68.762c-25.344-13.528-18.732-38.095,0.471-72.5
		c27.244-48.843-20.209-82.996-20.209-82.996s-9.013,62.081-60.738,51.402C222.128,103.268,220.306,27.526,239.464,0
		c-69.092,8.212-79.267,107.563-46.951,144.15c38.864,43.999,31.594,102.649-18.451,100.592
		c-36.398-1.492-53.231-46.943-33.965-91.712c-65.763,27.213-92.19,109.904-87.338,161.722
		c3.282,34.805,10.411,76.778,39.633,112.682c51.71,72.099,146.821,104.148,234.237,72.208
		c84.402-30.84,135.859-111.889,133.065-197.044C459.254,264.197,450.617,186.932,392.172,147.731z M303.452,454.191
		c-15.326,5.614-31.264,8.377-47.375,8.275c-0.015,0-0.015,0-0.015,0c-43.34-0.259-84.308-21.426-109.542-56.623
		c-0.565-0.77-1.131-1.524-1.728-2.262c-18.136-22.282-22.925-49.864-25.406-76.338c-1.005-10.748,0.345-24.269,4.145-37.89
		c14.808,15.694,34.75,24.897,56.702,25.792c1.194,0.054,2.371,0.086,3.534,0.086c34.216,0.204,62.653-17.273,76.048-46.763
		c4.899-10.756,7.474-22.462,7.867-34.545c0.173-8.314,1.837-25.391,1.837-25.391c0.424,2.34,8.825,29.858,9.531,32.222
		c3.8,12.978,13.254,31.028,36.682,43.512c10.914,5.841,22.392,8.824,34.091,8.895c13.787,0.079,26.993-3.949,38.534-11.47
		c3.345,15.671,4.146,30.306,4.255,39.492c0,0.33,0,0.651,0.016,0.974C394.558,380.938,358.725,434.014,303.452,454.191z"/>
</g>
</svg>